<?xml version="1.0" standalone="yes"?>
<svg xmlns="http://www.w3.org/2000/svg" width="225" height="225">
<path style="fill:#ffffff; stroke:none;" d="M0 0L0 225L225 225L225 0L0 0z"/>
<path style="fill:#feecaa; stroke:none;" d="M101 7C102.248 7.68481 102.548 7.74878 104 8C102.752 7.31525 102.451 7.25119 101 7z"/>
<path style="fill:#fde175; stroke:none;" d="M104.667 7.33333C104.222 7.77782 105.278 7.72223 105.333 7.66667C105.778 7.22226 104.722 7.27777 104.667 7.33333z"/>
<path style="fill:#fdd835; stroke:none;" d="M106 7.42438C83.9836 10.3166 63.5783 16.0499 46 30.4645C35.3322 39.2124 26.5553 49.9755 19.8619 62C-4.59414 105.934 7.6733 164.344 47 195.331C69.65 213.178 98.6789 220.203 127 216.714C142.25 214.835 157.178 209.475 170 200.996C180.488 194.061 190.213 185.246 197.572 175C229.895 129.996 222.062 65.7762 179 30.4645C168.939 22.2141 157.351 16.3016 145 12.3441C132.969 8.48914 118.627 5.76559 106 7.42438z"/>
<path style="fill:#fee482; stroke:none;" d="M119.667 7.33333C119.222 7.77782 120.278 7.72223 120.333 7.66667C120.778 7.22226 119.722 7.27777 119.667 7.33333z"/>
<path style="fill:#feecaa; stroke:none;" d="M121 7C122.248 7.6848 122.548 7.74878 124 8C122.752 7.31523 122.452 7.25121 121 7z"/>
<path style="fill:#feefb9; stroke:none;" d="M93 8C94.2484 8.68481 94.5484 8.74878 96 9C94.7517 8.31522 94.4515 8.25121 93 8z"/>
<path style="fill:#fee794; stroke:none;" d="M128.667 8.33333C128.222 8.77782 129.278 8.7222 129.333 8.66667C129.778 8.22223 128.722 8.27774 128.667 8.33333z"/>
<path style="fill:#fee482; stroke:none;" d="M89.6667 9.33333C89.2222 9.77782 90.2778 9.72223 90.3333 9.66667C90.7777 9.22224 89.7222 9.27776 89.6667 9.33333z"/>
<path style="fill:#feedb0; stroke:none;" d="M134.667 9.33333C134.222 9.7778 135.278 9.72223 135.333 9.66667C135.778 9.22221 134.722 9.27776 134.667 9.33333z"/>
<path style="fill:#fee172; stroke:none;" d="M85.6667 10.3333C85.2222 10.7778 86.2778 10.7222 86.3333 10.6667C86.7778 10.2222 85.7222 10.2778 85.6667 10.3333z"/>
<path style="fill:#feedb0; stroke:none;" d="M138.667 10.3333C138.222 10.7778 139.278 10.7222 139.333 10.6667C139.778 10.2222 138.722 10.2778 138.667 10.3333z"/>
<path style="fill:#fee68a; stroke:none;" d="M82 11L83 12L82 11z"/>
<path style="fill:#fff4ce; stroke:none;" d="M142.667 11.3333C142.222 11.7778 143.278 11.7222 143.333 11.6667C143.778 11.2222 142.722 11.2778 142.667 11.3333z"/>
<path style="fill:#fee37e; stroke:none;" d="M79 12L80 13L79 12z"/>
<path style="fill:#fde175; stroke:none;" d="M145 12L146 13L145 12z"/>
<path style="fill:#fee482; stroke:none;" d="M76 13L77 14L76 13M148 13L149 14L148 13z"/>
<path style="fill:#feeba6; stroke:none;" d="M73 14L74 15L73 14M151 14L152 15L151 14z"/>
<path style="fill:#fde175; stroke:none;" d="M71 15L72 16L71 15M153 15L154 16L153 15z"/>
<path style="fill:#fee37e; stroke:none;" d="M59 21L60 22L59 21z"/>
<path style="fill:#feecaa; stroke:none;" d="M57 22L58 23L57 22M167 22L168 23L167 22z"/>
<path style="fill:#fee794; stroke:none;" d="M54 24L55 25L54 24M170 24L171 25L170 24z"/>
<path style="fill:#fee898; stroke:none;" d="M51 26L52 27L51 26M173 26L174 27L173 26M47 29L48 30L47 29M177 29L178 30L177 29z"/>
<path style="fill:#feecaa; stroke:none;" d="M41 34L42 35L41 34M183 34L184 35L183 34z"/>
<path style="fill:#fee898; stroke:none;" d="M40 35L41 36L40 35M184 35L185 36L184 35z"/>
<path style="fill:#fee794; stroke:none;" d="M39 36L40 37L39 36z"/>
<path style="fill:#fee68a; stroke:none;" d="M185 36L186 37L185 36M38 37L39 38L38 37M186 37L187 38L186 37M37 38L38 39L37 38M187 38L188 39L187 38z"/>
<path style="fill:#fee794; stroke:none;" d="M36 39L37 40L36 39z"/>
<path style="fill:#fee68a; stroke:none;" d="M188 39L189 40L188 39z"/>
<path style="fill:#fee898; stroke:none;" d="M35 40L36 41L35 40M189 40L190 41L189 40z"/>
<path style="fill:#feecaa; stroke:none;" d="M34 41L35 42L34 41M190 41L191 42L190 41z"/>
<path style="fill:#fee898; stroke:none;" d="M29 47L30 48L29 47M195 47L196 48L195 47M26 51L27 52L26 51M198 51L199 52L198 51z"/>
<path style="fill:#fee794; stroke:none;" d="M24 54L25 55L24 54M200 54L201 55L200 54z"/>
<path style="fill:#feecaa; stroke:none;" d="M22 57L23 58L22 57M202 57L203 58L202 57z"/>
<path style="fill:#fde175; stroke:none;" d="M21 59L22 60L21 59M203 59L204 60L203 59z"/>
<path style="fill:#feecaa; stroke:none;" d="M71 61L71 164L93 164C87.041 161.5 78.4361 163 72 163L72 62L93 62C86.7977 59.3974 77.7023 61 71 61M132 61C137.959 63.5005 146.564 62 153 62L153 163L132 163C138.202 165.603 147.298 164 154 164L154 61L132 61z"/>
<path style="fill:#fdd626; stroke:none;" d="M70 62L70 163C73.0042 155.841 71 144.744 71 137L71 85C71 78.049 72.7007 68.4361 70 62z"/>
<path style="fill:#ffffff; stroke:none;" d="M72 62L72 163L92 163L92 118L133 118L133 163L153 163L153 62L133 62L133 88C133 91.1561 133.821 95.9116 131.972 98.6821C130.245 101.271 126.725 100.98 124 100.999C116.668 101.05 109.332 101.015 102 101C99.054 100.994 94.9187 101.516 93.0278 98.6821C91.179 95.9116 92 91.1561 92 88L92 62L72 62z"/>
<path style="fill:#fff4ce; stroke:none;" d="M92 62L92 100C93.4412 96.5655 93 92.7024 93 89C93 80.9926 95.105 69.3995 92 62z"/>
<path style="fill:#fdd620; stroke:none;" d="M93 62L93 100L132 100L132 62C130.339 65.9586 131 70.7397 131 75L131 99L94 99L94 75C94 70.7397 94.6611 65.9586 93 62z"/>
<path style="fill:#fff4ce; stroke:none;" d="M132 62L132 100C135.105 92.6005 133 81.0074 133 73C133 69.2976 133.441 65.4346 132 62z"/>
<path style="fill:#fdd626; stroke:none;" d="M154 62L154 163C156.701 156.564 155 146.951 155 140L155 88C155 80.2563 157.004 69.1593 154 62z"/>
<path style="fill:#fde175; stroke:none;" d="M15 71L16 72L15 71M209 71L210 72L209 71z"/>
<path style="fill:#feeba6; stroke:none;" d="M14 73L15 74L14 73M210 73L211 74L210 73z"/>
<path style="fill:#fee482; stroke:none;" d="M13 76L14 77L13 76M211 76L212 77L211 76z"/>
<path style="fill:#fde175; stroke:none;" d="M12 79L13 80L12 79z"/>
<path style="fill:#fee37e; stroke:none;" d="M212 79L213 80L212 79z"/>
<path style="fill:#fee68a; stroke:none;" d="M11 82L12 83L11 82M213 82L214 83L213 82z"/>
<path style="fill:#fee172; stroke:none;" d="M10.3333 85.6667C10.2778 85.7222 10.2222 86.7778 10.6667 86.3333C10.7222 86.2778 10.7778 85.2222 10.3333 85.6667M214.333 85.6667C214.278 85.7222 214.222 86.7778 214.667 86.3333C214.722 86.2777 214.778 85.2223 214.333 85.6667z"/>
<path style="fill:#fee482; stroke:none;" d="M9.33333 89.6667C9.2778 89.7222 9.22221 90.7778 9.66667 90.3333C9.72227 90.2777 9.77775 89.2223 9.33333 89.6667M215.333 89.6667C215.278 89.7222 215.222 90.7778 215.667 90.3333C215.722 90.2778 215.778 89.2222 215.333 89.6667z"/>
<path style="fill:#feefb9; stroke:none;" d="M8 93L8 96C8.69611 94.4463 8.6961 94.5537 8 93M216 93L216 96C216.696 94.4463 216.696 94.5537 216 93z"/>
<path style="fill:#fef1c3; stroke:none;" d="M93 100C96.9586 101.661 101.74 101 106 101L132 101C128.041 99.3389 123.26 100 119 100L93 100z"/>
<path style="fill:#feecaa; stroke:none;" d="M7 101L7 104C7.69611 102.446 7.6961 102.554 7 101M217 101L217 104C217.696 102.446 217.696 102.554 217 101z"/>
<path style="fill:#fde175; stroke:none;" d="M7.33333 104.667C7.2778 104.722 7.22223 105.778 7.66667 105.333C7.72224 105.278 7.77777 104.222 7.33333 104.667M217.333 104.667C217.278 104.722 217.222 105.778 217.667 105.333C217.722 105.278 217.778 104.222 217.333 104.667z"/>
<path style="fill:#fee482; stroke:none;" d="M217 117L217 122C217.83 119.969 217.83 119.03 217 117z"/>
<path style="fill:#fff4ce; stroke:none;" d="M92 118L92 163C93.552 159.301 93 154.983 93 151L93 131C93 126.74 93.6611 121.959 92 118z"/>
<path style="fill:#fdd620; stroke:none;" d="M93 118L93 163C94.8752 158.531 94 152.809 94 148L94 119L131 119L131 163C132.875 158.531 132 152.809 132 148L132 118L93 118z"/>
<path style="fill:#fff4ce; stroke:none;" d="M132 118L132 163C133.552 159.301 133 154.983 133 151L133 131C133 126.74 133.661 121.959 132 118z"/>
<path style="fill:#fee482; stroke:none;" d="M7.33333 119.667C7.2778 119.722 7.22222 120.778 7.66667 120.333C7.72224 120.278 7.77777 119.222 7.33333 119.667z"/>
<path style="fill:#feecaa; stroke:none;" d="M7 121L7 124C7.69611 122.446 7.6961 122.554 7 121z"/>
<path style="fill:#fef0be; stroke:none;" d="M217.333 122.667C217.278 122.722 217.222 123.778 217.667 123.333C217.722 123.278 217.778 122.222 217.333 122.667z"/>
<path style="fill:#fee794; stroke:none;" d="M8.33333 128.667C8.27779 128.722 8.2222 129.778 8.66667 129.333C8.72222 129.278 8.77779 128.222 8.33333 128.667M216.333 128.667C216.278 128.722 216.222 129.778 216.667 129.333C216.722 129.278 216.778 128.222 216.333 128.667z"/>
<path style="fill:#feefb9; stroke:none;" d="M9.33333 134.667C9.27779 134.722 9.22221 135.778 9.66667 135.333C9.72224 135.278 9.77775 134.222 9.33333 134.667M215.333 134.667C215.278 134.722 215.222 135.778 215.667 135.333C215.722 135.278 215.778 134.222 215.333 134.667z"/>
<path style="fill:#feedb0; stroke:none;" d="M10.3333 138.667C10.2778 138.722 10.2222 139.778 10.6667 139.333C10.7222 139.278 10.7778 138.222 10.3333 138.667z"/>
<path style="fill:#fff4ce; stroke:none;" d="M11.3333 142.667C11.2778 142.722 11.2222 143.778 11.6667 143.333C11.7222 143.278 11.7778 142.222 11.3333 142.667M213.333 142.667C213.278 142.722 213.222 143.778 213.667 143.333C213.722 143.278 213.778 142.222 213.333 142.667z"/>
<path style="fill:#fef1c3; stroke:none;" d="M12.3333 145.667C12.2778 145.722 12.2222 146.778 12.6667 146.333C12.7222 146.278 12.7778 145.222 12.3333 145.667M212.333 145.667C212.278 145.722 212.222 146.778 212.667 146.333C212.722 146.278 212.778 145.222 212.333 145.667z"/>
<path style="fill:#fee482; stroke:none;" d="M13 148L14 149L13 148M211 148L212 149L211 148z"/>
<path style="fill:#feeba6; stroke:none;" d="M14 151L15 152L14 151M210 151L211 152L210 151z"/>
<path style="fill:#fde175; stroke:none;" d="M15 153L16 154L15 153z"/>
<path style="fill:#fee37e; stroke:none;" d="M21 165L22 166L21 165M203 165L204 166L203 165z"/>
<path style="fill:#feecaa; stroke:none;" d="M22 167L23 168L22 167M202 167L203 168L202 167z"/>
<path style="fill:#fee794; stroke:none;" d="M24 170L25 171L24 170M200 170L201 171L200 170z"/>
<path style="fill:#fee898; stroke:none;" d="M26 173L27 174L26 173M198 173L199 174L198 173M29 177L30 178L29 177M195 177L196 178L195 177z"/>
<path style="fill:#feecaa; stroke:none;" d="M34 183L35 184L34 183M190 183L191 184L190 183z"/>
<path style="fill:#fee898; stroke:none;" d="M35 184L36 185L35 184M189 184L190 185L189 184z"/>
<path style="fill:#fee794; stroke:none;" d="M36 185L37 186L36 185M188 185L189 186L188 185z"/>
<path style="fill:#fee68a; stroke:none;" d="M37 186L38 187L37 186M187 186L188 187L187 186M38 187L39 188L38 187M186 187L187 188L186 187z"/>
<path style="fill:#fee794; stroke:none;" d="M39 188L40 189L39 188M185 188L186 189L185 188z"/>
<path style="fill:#fee898; stroke:none;" d="M40 189L41 190L40 189M184 189L185 190L184 189z"/>
<path style="fill:#feecaa; stroke:none;" d="M41 190L42 191L41 190M183 190L184 191L183 190z"/>
<path style="fill:#fee898; stroke:none;" d="M47 195L48 196L47 195M177 195L178 196L177 195z"/>
<path style="fill:#feeba6; stroke:none;" d="M51 198L52 199L51 198z"/>
<path style="fill:#fee898; stroke:none;" d="M173 198L174 199L173 198z"/>
<path style="fill:#fee794; stroke:none;" d="M54 200L55 201L54 200M170 200L171 201L170 200z"/>
<path style="fill:#feecaa; stroke:none;" d="M57 202L58 203L57 202M167 202L168 203L167 202z"/>
<path style="fill:#fee37e; stroke:none;" d="M59 203L60 204L59 203M71 209L72 210L71 209z"/>
<path style="fill:#feeba6; stroke:none;" d="M73 210L74 211L73 210M151 210L152 211L151 210z"/>
<path style="fill:#fee482; stroke:none;" d="M76 211L77 212L76 211M148 211L149 212L148 211z"/>
<path style="fill:#fee37e; stroke:none;" d="M79 212L80 213L79 212z"/>
<path style="fill:#fee68a; stroke:none;" d="M82 213L83 214L82 213z"/>
<path style="fill:#fff4ce; stroke:none;" d="M142.667 213.333C142.222 213.778 143.278 213.722 143.333 213.667C143.778 213.222 142.722 213.278 142.667 213.333z"/>
<path style="fill:#fde175; stroke:none;" d="M85.6667 214.333C85.2222 214.778 86.2778 214.722 86.3333 214.667C86.7778 214.222 85.7222 214.278 85.6667 214.333z"/>
<path style="fill:#fee68a; stroke:none;" d="M89.6667 215.333C89.2222 215.778 90.2778 215.722 90.3333 215.667C90.7778 215.222 89.7222 215.278 89.6667 215.333z"/>
<path style="fill:#feedb0; stroke:none;" d="M134.667 215.333C134.222 215.778 135.278 215.722 135.333 215.667C135.778 215.222 134.722 215.278 134.667 215.333z"/>
<path style="fill:#feefb9; stroke:none;" d="M93 216C94.2484 216.685 94.5484 216.749 96 217C94.7517 216.315 94.4516 216.251 93 216z"/>
<path style="fill:#fee794; stroke:none;" d="M128.667 216.333C128.222 216.778 129.278 216.722 129.333 216.667C129.778 216.222 128.722 216.278 128.667 216.333z"/>
<path style="fill:#feecaa; stroke:none;" d="M101 217C102.248 217.685 102.548 217.749 104 218C102.752 217.315 102.452 217.251 101 217z"/>
<path style="fill:#fde175; stroke:none;" d="M104.667 217.333C104.222 217.778 105.278 217.722 105.333 217.667C105.778 217.222 104.722 217.278 104.667 217.333z"/>
<path style="fill:#fee482; stroke:none;" d="M117 217C118.506 217.683 119.315 217.826 121 218C119.494 217.317 118.685 217.174 117 217z"/>
<path style="fill:#feecaa; stroke:none;" d="M121 217C122.248 217.685 122.548 217.749 124 218C122.752 217.315 122.452 217.251 121 217z"/>
</svg>
